<svg width="91" height="91" viewBox="0 0 91 91" fill="none" xmlns="http://www.w3.org/2000/svg">
<path fill-rule="evenodd" clip-rule="evenodd" d="M15.7878 11.0398C23.7596 4.16024 34.1439 -2.48526e-06 45.5 -1.98887e-06C60.0693 -1.35203e-06 73.0392 6.84761 81.3669 17.5L74.875 24C73.1088 21.591 71.0534 19.4073 68.76 17.5C62.4526 12.2546 54.3447 9.1 45.5 9.1C36.6553 9.1 28.5474 12.2546 22.24 17.5L15.7878 11.0398Z" fill="#66BFFF"/>
<path d="M52.5 45.5L74.875 24C73.1088 21.591 71.0534 19.4073 68.76 17.5L39 45.5L68.76 73.5C71.0534 71.5927 73.1088 69.409 74.875 67L52.5 45.5Z" fill="#66BFFF"/>
<path d="M45.5 91C60.0693 91 73.0392 84.1524 81.3669 73.5L74.875 67C73.1088 69.409 71.0534 71.5927 68.76 73.5C62.4526 78.7454 54.3447 81.9 45.5 81.9C36.6553 81.9 28.5474 78.7454 22.24 73.5L15.7882 79.9605C23.7599 86.8399 34.1441 91 45.5 91Z" fill="#66BFFF"/>
<path d="M45 59L61 74.0079C48.3809 79.3093 41.3608 79.3521 29 74.0079L45 59Z" fill="#FF99DD"/>
<path d="M62 17.4915C49.3736 11.4857 40.8551 12.0285 28.5 18L33 22.5C43.3575 18.3324 47.0463 17.9623 57.5 21.9915L62 17.4915Z" fill="#B5FF80"/>
</svg>
